<svg width="20" height="20" viewBox="0 0 20 20" fill="none" xmlns="http://www.w3.org/2000/svg">
<path d="M10 17.5C14.1421 17.5 17.5 14.1421 17.5 10C17.5 5.85786 14.1421 2.5 10 2.5C5.85786 2.5 2.5 5.85786 2.5 10C2.5 14.1421 5.85786 17.5 10 17.5Z" stroke="white" stroke-miterlimit="10"/>
<path d="M2.92578 7.5H17.0715" stroke="white" stroke-linecap="round" stroke-linejoin="round"/>
<path d="M2.92969 12.5H17.0753" stroke="white" stroke-linecap="round" stroke-linejoin="round"/>
<path d="M10 17.2987C11.7259 17.2987 13.125 14.031 13.125 10C13.125 5.96908 11.7259 2.70135 10 2.70135C8.27411 2.70135 6.875 5.96908 6.875 10C6.875 14.031 8.27411 17.2987 10 17.2987Z" stroke="white" stroke-miterlimit="10"/>
</svg>
