<svg width="728" height="170" viewBox="0 0 728 170" fill="none" xmlns="http://www.w3.org/2000/svg">
<path opacity="0.5" d="M315.077 146.085C314.778 145.419 315.42 144.776 316.084 145.075C316.228 145.142 316.339 145.253 316.405 145.397C316.715 146.063 316.062 146.706 315.398 146.407C315.254 146.34 315.143 146.229 315.077 146.085Z" fill="white"/>
<path opacity="0.5" d="M233.077 158.085C232.778 157.419 233.42 156.776 234.084 157.075C234.228 157.142 234.339 157.253 234.405 157.397C234.715 158.063 234.062 158.706 233.398 158.407C233.254 158.34 233.143 158.229 233.077 158.085Z" fill="white"/>
<path opacity="0.5" d="M400.077 137.085C399.778 136.419 400.42 135.776 401.084 136.075C401.228 136.142 401.339 136.253 401.405 136.397C401.715 137.063 401.062 137.706 400.398 137.407C400.254 137.34 400.143 137.229 400.077 137.085Z" fill="white"/>
<path d="M297.077 162.085C296.778 161.419 297.42 160.776 298.084 161.075C298.228 161.142 298.339 161.253 298.405 161.397C298.715 162.063 298.062 162.706 297.398 162.407C297.254 162.34 297.143 162.229 297.077 162.085Z" fill="white"/>
<path opacity="0.5" d="M314.077 118.085C313.778 117.419 314.42 116.776 315.084 117.075C315.228 117.142 315.339 117.253 315.405 117.397C315.715 118.063 315.062 118.706 314.398 118.407C314.254 118.34 314.143 118.229 314.077 118.085Z" fill="white"/>
<path d="M345.077 123.085C344.778 122.419 345.42 121.776 346.084 122.075C346.228 122.142 346.339 122.253 346.405 122.397C346.715 123.063 346.062 123.706 345.398 123.407C345.254 123.34 345.143 123.229 345.077 123.085Z" fill="white"/>
<path opacity="0.5" d="M572.077 110.085C571.778 109.419 572.42 108.776 573.084 109.075C573.228 109.142 573.339 109.253 573.405 109.397C573.715 110.063 573.062 110.706 572.398 110.407C572.254 110.34 572.143 110.229 572.077 110.085Z" fill="white"/>
<path opacity="0.5" d="M638.077 155.085C637.778 154.419 638.42 153.776 639.084 154.075C639.228 154.142 639.339 154.253 639.405 154.397C639.715 155.063 639.062 155.706 638.398 155.407C638.254 155.34 638.143 155.229 638.077 155.085Z" fill="white"/>
<path d="M532.077 125.085C531.778 124.419 532.42 123.776 533.084 124.075C533.228 124.142 533.339 124.253 533.405 124.397C533.715 125.063 533.062 125.706 532.398 125.407C532.254 125.34 532.143 125.229 532.077 125.085Z" fill="white"/>
<path d="M187.077 153.085C186.778 152.419 187.42 151.776 188.084 152.075C188.228 152.142 188.339 152.253 188.405 152.397C188.715 153.063 188.062 153.706 187.398 153.407C187.254 153.34 187.143 153.229 187.077 153.085Z" fill="white"/>
<path d="M75.0769 124.085C74.7781 123.419 75.42 122.776 76.0841 123.075C76.228 123.142 76.3386 123.253 76.405 123.397C76.7149 124.063 76.0619 124.706 75.3979 124.407C75.254 124.34 75.1433 124.229 75.0769 124.085Z" fill="white"/>
<path d="M22.0769 153.085C21.7781 152.419 22.42 151.776 23.0841 152.075C23.228 152.142 23.3386 152.253 23.405 152.397C23.7149 153.063 23.0619 153.706 22.3979 153.407C22.254 153.34 22.1433 153.229 22.0769 153.085Z" fill="white"/>
<path d="M155.077 140.085C154.778 139.419 155.42 138.776 156.084 139.075C156.228 139.142 156.339 139.253 156.405 139.397C156.715 140.063 156.062 140.706 155.398 140.407C155.254 140.34 155.143 140.229 155.077 140.085Z" fill="white"/>
<path d="M105.077 150.085C104.778 149.419 105.42 148.776 106.084 149.075C106.228 149.142 106.339 149.253 106.405 149.397C106.715 150.063 106.062 150.706 105.398 150.407C105.254 150.34 105.143 150.229 105.077 150.085Z" fill="white"/>
<path d="M560.077 68.085C559.778 67.4192 560.42 66.7756 561.084 67.0752C561.228 67.1418 561.339 67.2527 561.405 67.397C561.715 68.0628 561.062 68.7065 560.398 68.4068C560.254 68.3403 560.143 68.2293 560.077 68.085Z" fill="white"/>
<path d="M141.077 124.085C140.778 123.419 141.42 122.776 142.084 123.075C142.228 123.142 142.339 123.253 142.405 123.397C142.715 124.063 142.062 124.706 141.398 124.407C141.254 124.34 141.143 124.229 141.077 124.085Z" fill="white"/>
<path d="M370.077 85.085C369.778 84.4192 370.42 83.7756 371.084 84.0752C371.228 84.1418 371.339 84.2527 371.405 84.397C371.715 85.0628 371.062 85.7065 370.398 85.4068C370.254 85.3403 370.143 85.2293 370.077 85.085Z" fill="white"/>
<path d="M504.077 139.085C503.778 138.419 504.42 137.776 505.084 138.075C505.228 138.142 505.339 138.253 505.405 138.397C505.715 139.063 505.062 139.706 504.398 139.407C504.254 139.34 504.143 139.229 504.077 139.085Z" fill="white"/>
<g filter="url(#filter0_d_1_3028)">
<path d="M437.077 119.085C436.778 118.419 437.42 117.776 438.084 118.075C438.228 118.142 438.339 118.253 438.405 118.397C438.715 119.063 438.062 119.706 437.398 119.407C437.254 119.34 437.143 119.229 437.077 119.085Z" fill="white"/>
</g>
<g filter="url(#filter1_d_1_3028)">
<path d="M313.077 92.085C312.778 91.4192 313.42 90.7756 314.084 91.0752C314.228 91.1418 314.339 91.2527 314.405 91.397C314.715 92.0628 314.062 92.7065 313.398 92.4068C313.254 92.3403 313.143 92.2293 313.077 92.085Z" fill="white"/>
</g>
<path opacity="0.5" d="M398.077 162.085C397.778 161.419 398.42 160.776 399.084 161.075C399.228 161.142 399.339 161.253 399.405 161.397C399.715 162.063 399.062 162.706 398.398 162.407C398.254 162.34 398.143 162.229 398.077 162.085Z" fill="white"/>
<path d="M610.077 117.085C609.778 116.419 610.42 115.776 611.084 116.075C611.228 116.142 611.339 116.253 611.405 116.397C611.715 117.063 611.062 117.706 610.398 117.407C610.254 117.34 610.143 117.229 610.077 117.085Z" fill="white"/>
<path d="M677.077 144.085C676.778 143.419 677.42 142.776 678.084 143.075C678.228 143.142 678.339 143.253 678.405 143.397C678.715 144.063 678.062 144.706 677.398 144.407C677.254 144.34 677.143 144.229 677.077 144.085Z" fill="white"/>
<path opacity="0.5" d="M487.077 159.085C486.778 158.419 487.42 157.776 488.084 158.075C488.228 158.142 488.339 158.253 488.405 158.397C488.715 159.063 488.062 159.706 487.398 159.407C487.254 159.34 487.143 159.229 487.077 159.085Z" fill="white"/>
<path d="M136.077 69.085C135.778 68.4192 136.42 67.7756 137.084 68.0752C137.228 68.1418 137.339 68.2527 137.405 68.397C137.715 69.0628 137.062 69.7065 136.398 69.4068C136.254 69.3403 136.143 69.2293 136.077 69.085Z" fill="white"/>
<path d="M260.077 109.085C259.778 108.419 260.42 107.776 261.084 108.075C261.228 108.142 261.339 108.253 261.405 108.397C261.715 109.063 261.062 109.706 260.398 109.407C260.254 109.34 260.143 109.229 260.077 109.085Z" fill="white"/>
<path d="M588.077 68.085C587.778 67.4192 588.42 66.7756 589.084 67.0752C589.228 67.1418 589.339 67.2527 589.405 67.397C589.715 68.0628 589.062 68.7065 588.398 68.4068C588.254 68.3403 588.143 68.2293 588.077 68.085Z" fill="white"/>
<defs>
<filter id="filter0_d_1_3028" x="403.001" y="83.9996" width="69.4829" height="69.4828" filterUnits="userSpaceOnUse" color-interpolation-filters="sRGB">
<feFlood flood-opacity="0" result="BackgroundImageFix"/>
<feColorMatrix in="SourceAlpha" type="matrix" values="0 0 0 0 0 0 0 0 0 0 0 0 0 0 0 0 0 0 127 0" result="hardAlpha"/>
<feOffset/>
<feGaussianBlur stdDeviation="17"/>
<feComposite in2="hardAlpha" operator="out"/>
<feColorMatrix type="matrix" values="0 0 0 0 0 0 0 0 0 0 0 0 0 0 0 0 0 0 1 0"/>
<feBlend mode="normal" in2="BackgroundImageFix" result="effect1_dropShadow_1_3028"/>
<feBlend mode="normal" in="SourceGraphic" in2="effect1_dropShadow_1_3028" result="shape"/>
</filter>
<filter id="filter1_d_1_3028" x="279.001" y="56.9996" width="69.4829" height="69.4828" filterUnits="userSpaceOnUse" color-interpolation-filters="sRGB">
<feFlood flood-opacity="0" result="BackgroundImageFix"/>
<feColorMatrix in="SourceAlpha" type="matrix" values="0 0 0 0 0 0 0 0 0 0 0 0 0 0 0 0 0 0 127 0" result="hardAlpha"/>
<feOffset/>
<feGaussianBlur stdDeviation="17"/>
<feComposite in2="hardAlpha" operator="out"/>
<feColorMatrix type="matrix" values="0 0 0 0 0 0 0 0 0 0 0 0 0 0 0 0 0 0 1 0"/>
<feBlend mode="normal" in2="BackgroundImageFix" result="effect1_dropShadow_1_3028"/>
<feBlend mode="normal" in="SourceGraphic" in2="effect1_dropShadow_1_3028" result="shape"/>
</filter>
</defs>
</svg>
